<?xml version="1.0" standalone="no"?>
<!DOCTYPE svg PUBLIC "-//W3C//DTD SVG 20010904//EN"
 "http://www.w3.org/TR/2001/REC-SVG-20010904/DTD/svg10.dtd">
<svg version="1.0" xmlns="http://www.w3.org/2000/svg"
 width="400.000000pt" height="400.000000pt" viewBox="0 0 400.000000 400.000000"
 preserveAspectRatio="xMidYMid meet">
<metadata>
Created by potrace 1.15, written by Peter Selinger 2001-2017
</metadata>
<g transform="translate(0.000000,400.000000) scale(0.100000,-0.100000)"
fill="#11975F" stroke="none">
<path d="M1110 3437 c0 -2 111 -114 248 -250 l247 -247 398 0 397 0 0 -393 0
-393 252 -251 c139 -139 254 -250 258 -248 3 2 4 404 2 894 l-2 891 -900 0
c-495 0 -900 -1 -900 -3z"/>
<path d="M1353 2613 l-253 -255 0 -359 0 -359 373 0 372 0 248 248 c136 136
247 250 247 255 0 4 -160 7 -355 7 l-355 0 -2 273 c-2 149 -3 311 -3 360 0 52
-4 86 -10 86 -5 -1 -124 -116 -262 -256z"/>
<path d="M1018 1253 c-47 -109 -278 -691 -278 -701 0 -9 30 -12 103 -12 l102
0 26 68 26 67 159 3 159 2 28 -70 29 -70 105 0 105 0 -6 26 c-4 15 -20 54 -36
88 -24 50 -141 314 -257 579 l-26 57 -111 0 -112 0 -16 -37z m177 -288 c26
-61 49 -116 52 -122 4 -10 -19 -13 -96 -13 l-101 0 15 33 c32 74 75 191 75
205 0 24 6 13 55 -103z"/>
<path d="M1650 915 l0 -375 100 0 100 0 2 221 3 220 85 -101 c84 -101 112
-126 130 -115 5 3 50 53 99 110 l91 105 0 -220 0 -220 100 0 100 0 0 375 0
376 -87 -3 -87 -3 -70 -80 c-39 -44 -91 -103 -116 -132 l-45 -52 -115 134
-115 134 -87 1 -88 0 0 -375z"/>
<path d="M2580 914 l0 -376 233 4 232 3 73 34 c87 41 162 116 186 187 11 31
16 82 16 148 0 91 -3 107 -29 161 -49 104 -121 162 -241 194 -64 18 -104 21
-272 21 l-198 0 0 -376z m425 197 c106 -48 144 -185 87 -313 -15 -35 -32 -53
-68 -74 -42 -25 -61 -29 -146 -32 l-98 -4 0 221 0 221 93 0 c68 0 103 -5 132
-19z"/>
</g>
</svg>
