<?xml version="1.0" standalone="no"?>
<!DOCTYPE svg PUBLIC "-//W3C//DTD SVG 20010904//EN"
 "http://www.w3.org/TR/2001/REC-SVG-20010904/DTD/svg10.dtd">
<svg version="1.0" xmlns="http://www.w3.org/2000/svg"
 width="186.000000pt" height="180.000000pt" viewBox="0 0 186.000000 180.000000"
 preserveAspectRatio="xMidYMid meet">
<metadata>
Created by potrace 1.15, written by Peter Selinger 2001-2017
</metadata>
<g transform="translate(0.000000,180.000000) scale(0.100000,-0.100000)"
fill="#000080" stroke="none">
<path d="M0 1791 c0 -6 22 -47 50 -93 l50 -83 0 -712 0 -711 -50 -85 c-28 -47
-50 -90 -50 -96 0 -8 186 -11 658 -11 l657 0 90 167 c50 92 92 171 93 175 10
22 -30 1 -126 -67 l-107 -75 -467 0 -468 0 0 709 0 708 51 79 c28 43 53 84 56
91 4 10 -38 13 -216 13 -131 0 -221 -4 -221 -9z"/>
<path d="M455 1633 c-49 -92 -91 -171 -93 -175 -9 -22 30 -1 128 67 l108 75
466 0 466 0 0 -707 0 -707 -55 -87 c-30 -48 -55 -89 -55 -93 0 -3 99 -6 220
-6 131 0 220 4 220 9 0 6 -22 47 -50 93 l-50 83 0 712 0 711 50 85 c27 47 50
90 50 96 0 8 -186 11 -657 11 l-658 0 -90 -167z"/>
<path d="M530 1460 c-25 -25 -25 -80 -1 -135 17 -38 17 -41 -2 -84 -16 -37
-18 -60 -14 -140 2 -54 12 -119 22 -149 18 -51 18 -55 0 -110 -10 -31 -20 -98
-23 -148 -4 -76 -1 -99 16 -137 20 -45 20 -46 1 -84 -25 -49 -25 -107 1 -133
25 -25 96 -26 160 -2 40 16 50 16 85 4 67 -24 192 -27 279 -8 71 16 81 16 123
2 66 -23 128 -21 153 4 26 26 26 79 0 130 -20 38 -20 39 0 82 27 59 27 179 0
276 l-20 73 20 66 c27 88 27 221 0 280 -18 41 -18 43 1 82 58 120 -22 186
-161 133 -41 -16 -49 -16 -85 -3 -56 21 -256 20 -310 -1 -37 -14 -44 -14 -85
3 -63 25 -134 25 -160 -1z m317 -156 l22 -19 -69 -63 -69 -62 -50 62 -51 62
23 24 c12 14 35 33 51 43 29 17 30 17 75 -6 25 -12 56 -31 68 -41z m337 25
l46 -41 -47 -59 c-26 -33 -49 -62 -52 -64 -4 -2 -36 26 -74 61 l-67 64 62 40
c35 22 68 40 74 40 6 0 32 -18 58 -41z m-174 -148 l75 -69 -75 -78 c-41 -44
-78 -79 -81 -79 -3 0 -39 35 -80 79 l-73 79 74 68 c41 38 77 68 80 68 3 1 39
-30 80 -68z m-186 -218 l58 -62 -72 -80 -73 -80 -32 42 c-17 23 -41 59 -54 79
-25 43 -25 45 42 141 38 55 41 57 57 40 9 -10 43 -46 74 -80z m362 17 l48 -71
-22 -42 c-12 -23 -37 -61 -56 -84 l-33 -43 -72 80 -72 80 72 80 c40 43 75 77
79 75 4 -3 29 -37 56 -75z m-183 -207 l76 -78 -62 -63 c-34 -35 -69 -67 -78
-72 -11 -7 -34 8 -89 60 l-73 68 74 81 c41 44 75 80 75 80 1 1 36 -34 77 -76z
m280 -90 c1 -46 -3 -87 -8 -92 -8 -8 -25 6 -58 45 l-46 55 47 63 c46 62 47 63
55 37 5 -14 9 -63 10 -108z m-436 -187 c-12 -10 -43 -29 -70 -42 -48 -25 -48
-25 -75 -5 -15 10 -37 30 -49 43 l-23 24 51 62 51 63 68 -63 68 -63 -21 -19z
m338 74 l45 -58 -46 -41 c-26 -23 -52 -41 -58 -41 -6 0 -40 18 -74 40 l-64 41
69 63 c37 35 71 62 75 59 4 -2 28 -30 53 -63z"/>
</g>
</svg>
