<svg xmlns="http://www.w3.org/2000/svg" width="600" height="600"><path d="M291,297L247,224L133,315Z" fill="#fafafa" stroke="#fafafa" stroke-width="1.51"/><path d="M247,224L160,165L133,315Z" fill="#f5f5f5" stroke="#f5f5f5" stroke-width="1.51"/><path d="M222,438L322,385L291,297Z" fill="#fafafa" stroke="#fafafa" stroke-width="1.51"/><path d="M133,315L222,438L291,297Z" fill="#f8f8f8" stroke="#f8f8f8" stroke-width="1.51"/><path d="M133,315L46,423L222,438Z" fill="#e4e4e4" stroke="#e4e4e4" stroke-width="1.51"/><path d="M35,188L36,299L133,315Z" fill="#afadad" stroke="#afadad" stroke-width="1.51"/><path d="M160,165L35,188L133,315Z" fill="#d0cfcf" stroke="#d0cfcf" stroke-width="1.51"/><path d="M36,299L46,423L133,315Z" fill="#b1b0b0" stroke="#b1b0b0" stroke-width="1.51"/><path d="M247,224L319,61L160,165Z" fill="#f4f4f4" stroke="#f4f4f4" stroke-width="1.51"/><path d="M291,297L388,162L247,224Z" fill="#fbfbfb" stroke="#fbfbfb" stroke-width="1.51"/><path d="M436,277L388,162L291,297Z" fill="#f9f9f9" stroke="#f9f9f9" stroke-width="1.51"/><path d="M322,385L436,277L291,297Z" fill="#fbfbfb" stroke="#fbfbfb" stroke-width="1.51"/><path d="M222,438L272,549L322,385Z" fill="#efefef" stroke="#efefef" stroke-width="1.51"/><path d="M322,385L497,344L436,277Z" fill="#f7f7f7" stroke="#f7f7f7" stroke-width="1.51"/><path d="M46,423L222,550L222,438Z" fill="#dedede" stroke="#dedede" stroke-width="1.51"/><path d="M388,162L319,61L247,224Z" fill="#f5f5f5" stroke="#f5f5f5" stroke-width="1.51"/><path d="M160,165L30,48L35,188Z" fill="#a1a0a0" stroke="#a1a0a0" stroke-width="1.51"/><path d="M222,550L272,549L222,438Z" fill="#bebdbd" stroke="#bebdbd" stroke-width="1.51"/><path d="M46,423L68,591L222,550Z" fill="#939191" stroke="#939191" stroke-width="1.51"/><path d="M36,299L-30,405L46,423Z" fill="#838181" stroke="#838181" stroke-width="1.51"/><path d="M-109,328L-30,405L36,299Z" fill="#777575" stroke="#777575" stroke-width="1.51"/><path d="M407,508L419,465L322,385Z" fill="#f1f1f1" stroke="#f1f1f1" stroke-width="1.51"/><path d="M35,188L-57,221L36,299Z" fill="#7a7878" stroke="#7a7878" stroke-width="1.51"/><path d="M-24,93L-57,221L35,188Z" fill="#737171" stroke="#737171" stroke-width="1.51"/><path d="M319,61L166,15L160,165Z" fill="#b6b5b5" stroke="#b6b5b5" stroke-width="1.51"/><path d="M272,549L407,508L322,385Z" fill="#dbdbdb" stroke="#dbdbdb" stroke-width="1.51"/><path d="M436,277L521,199L388,162Z" fill="#f3f3f3" stroke="#f3f3f3" stroke-width="1.51"/><path d="M419,465L497,344L322,385Z" fill="#f4f4f4" stroke="#f4f4f4" stroke-width="1.51"/><path d="M592,391L497,344L419,465Z" fill="#c4c4c4" stroke="#c4c4c4" stroke-width="1.51"/><path d="M166,15L30,48L160,165Z" fill="#969595" stroke="#969595" stroke-width="1.51"/><path d="M30,48L-24,93L35,188Z" fill="#5d5c5c" stroke="#5d5c5c" stroke-width="1.51"/><path d="M-178,289L-109,328L-57,221Z" fill="#787676" stroke="#787676" stroke-width="1.51"/><path d="M-57,221L-109,328L36,299Z" fill="#787676" stroke="#787676" stroke-width="1.51"/><path d="M319,61L207,-45L166,15Z" fill="#7e7c7c" stroke="#7e7c7c" stroke-width="1.51"/><path d="M469,9L322,-8L319,61Z" fill="#868585" stroke="#868585" stroke-width="1.51"/><path d="M469,9L319,61L388,162Z" fill="#b4b3b3" stroke="#b4b3b3" stroke-width="1.51"/><path d="M497,344L521,199L436,277Z" fill="#d7d7d7" stroke="#d7d7d7" stroke-width="1.51"/><path d="M-106,516L46,423L-30,405Z" fill="#727070" stroke="#727070" stroke-width="1.51"/><path d="M-106,516L68,591L46,423Z" fill="#474545" stroke="#474545" stroke-width="1.51"/><path d="M222,550L273,621L272,549Z" fill="#8c8b8b" stroke="#8c8b8b" stroke-width="1.51"/><path d="M272,549L273,621L407,508Z" fill="#989797" stroke="#989797" stroke-width="1.51"/><path d="M161,629L273,621L222,550Z" fill="#757373" stroke="#757373" stroke-width="1.51"/><path d="M68,591L161,629L222,550Z" fill="#7a7878" stroke="#7a7878" stroke-width="1.51"/><path d="M322,-8L207,-45L319,61Z" fill="#7a7878" stroke="#7a7878" stroke-width="1.51"/><path d="M166,15L40,-63L30,48Z" fill="#3d3b3b" stroke="#3d3b3b" stroke-width="1.51"/><path d="M-109,328L-129,436L-30,405Z" fill="#757373" stroke="#757373" stroke-width="1.51"/><path d="M507,45L469,9L388,162Z" fill="#a8a8a8" stroke="#a8a8a8" stroke-width="1.51"/><path d="M322,-8L323,-233L207,-45Z" fill="#787676" stroke="#787676" stroke-width="1.51"/><path d="M-129,436L-106,516L-30,405Z" fill="#706f6f" stroke="#706f6f" stroke-width="1.51"/><path d="M521,199L507,45L388,162Z" fill="#cfcfcf" stroke="#cfcfcf" stroke-width="1.51"/><path d="M-156,132L-178,289L-57,221Z" fill="#757373" stroke="#757373" stroke-width="1.51"/><path d="M-109,328L-178,289L-129,436Z" fill="#767575" stroke="#767575" stroke-width="1.51"/><path d="M-222,584L-171,620L-106,516Z" fill="#1b1919" stroke="#1b1919" stroke-width="1.51"/><path d="M497,344L592,391L521,199Z" fill="#acaaaa" stroke="#acaaaa" stroke-width="1.51"/><path d="M672,16L521,-68L507,45Z" fill="#1f1d1d" stroke="#1f1d1d" stroke-width="1.51"/><path d="M622,430L592,391L419,465Z" fill="#a09f9f" stroke="#a09f9f" stroke-width="1.51"/><path d="M520,586L419,465L407,508Z" fill="#b3b3b3" stroke="#b3b3b3" stroke-width="1.51"/><path d="M-24,93L-156,132L-57,221Z" fill="#717070" stroke="#717070" stroke-width="1.51"/><path d="M30,48L-32,-36L-24,93Z" fill="#201e1e" stroke="#201e1e" stroke-width="1.51"/><path d="M207,-45L40,-63L166,15Z" fill="#686767" stroke="#686767" stroke-width="1.51"/><path d="M-194,95L-156,132L-156,-20Z" fill="#373434" stroke="#373434" stroke-width="1.51"/><path d="M68,591L43,669L161,629Z" fill="#464444" stroke="#464444" stroke-width="1.51"/><path d="M161,629L167,733L273,621Z" fill="#747373" stroke="#747373" stroke-width="1.51"/><path d="M-57,616L43,669L68,591Z" fill="#161212" stroke="#161212" stroke-width="1.51"/><path d="M40,-63L-32,-36L30,48Z" fill="#120e0e" stroke="#120e0e" stroke-width="1.51"/><path d="M-106,516L-57,616L68,591Z" fill="#1a1818" stroke="#1a1818" stroke-width="1.51"/><path d="M273,621L460,637L407,508Z" fill="#7e7d7d" stroke="#7e7d7d" stroke-width="1.51"/><path d="M278,764L460,637L273,621Z" fill="#777575" stroke="#777575" stroke-width="1.51"/><path d="M460,637L520,586L407,508Z" fill="#7a7979" stroke="#7a7979" stroke-width="1.51"/><path d="M520,586L622,430L419,465Z" fill="#8f8e8e" stroke="#8f8e8e" stroke-width="1.51"/><path d="M692,248L677,178L521,199Z" fill="#757373" stroke="#757373" stroke-width="1.51"/><path d="M43,669L167,733L161,629Z" fill="#5e5c5c" stroke="#5e5c5c" stroke-width="1.51"/><path d="M521,-68L461,-73L469,9Z" fill="#585757" stroke="#585757" stroke-width="1.51"/><path d="M469,9L461,-73L322,-8Z" fill="#737272" stroke="#737272" stroke-width="1.51"/><path d="M207,-45L152,-224L40,-63Z" fill="#656363" stroke="#656363" stroke-width="1.51"/><path d="M-156,132L-194,95L-178,289Z" fill="#737171" stroke="#737171" stroke-width="1.51"/><path d="M-156,-20L-156,132L-24,93Z" fill="#363434" stroke="#363434" stroke-width="1.51"/><path d="M167,733L278,764L273,621Z" fill="#767474" stroke="#767474" stroke-width="1.51"/><path d="M507,45L521,-68L469,9Z" fill="#4d4b4b" stroke="#4d4b4b" stroke-width="1.51"/><path d="M677,178L507,45L521,199Z" fill="#848282" stroke="#848282" stroke-width="1.51"/><path d="M692,248L521,199L592,391Z" fill="#787676" stroke="#787676" stroke-width="1.51"/><path d="M622,430L692,248L592,391Z" fill="#767474" stroke="#767474" stroke-width="1.51"/><path d="M520,586L635,522L622,430Z" fill="#494646" stroke="#494646" stroke-width="1.51"/><path d="M572,623L635,522L520,586Z" fill="#282525" stroke="#282525" stroke-width="1.51"/><path d="M572,623L520,586L460,637Z" fill="#403e3e" stroke="#403e3e" stroke-width="1.51"/><path d="M799,266L692,248L622,430Z" fill="#787676" stroke="#787676" stroke-width="1.51"/><path d="M-32,-36L-156,-20L-24,93Z" fill="#120e0e" stroke="#120e0e" stroke-width="1.51"/><path d="M-111,-137L-156,-20L-32,-36Z" fill="#050000" stroke="#050000" stroke-width="1.51"/><path d="M581,829L572,623L460,637Z" fill="#323030" stroke="#323030" stroke-width="1.51"/><path d="M43,669L92,791L167,733Z" fill="#4d4b4b" stroke="#4d4b4b" stroke-width="1.51"/><path d="M-26,806L92,791L43,669Z" fill="#211f1f" stroke="#211f1f" stroke-width="1.51"/><path d="M-106,516L-171,620L-57,616Z" fill="#141111" stroke="#141111" stroke-width="1.51"/><path d="M-222,584L-106,516L-129,436Z" fill="#444242" stroke="#444242" stroke-width="1.51"/><path d="M-222,584L-129,436L-178,289Z" fill="#737171" stroke="#737171" stroke-width="1.51"/><path d="M571,-146L401,-170L461,-73Z" fill="#5d5b5b" stroke="#5d5b5b" stroke-width="1.51"/><path d="M461,-73L401,-170L322,-8Z" fill="#757373" stroke="#757373" stroke-width="1.51"/><path d="M40,-63L-111,-137L-32,-36Z" fill="#050000" stroke="#050000" stroke-width="1.51"/><path d="M-26,806L43,669L-57,616Z" fill="#050000" stroke="#050000" stroke-width="1.51"/><path d="M167,733L92,791L278,764Z" fill="#737272" stroke="#737272" stroke-width="1.51"/><path d="M-194,95L-222,584L-178,289Z" fill="#787676" stroke="#787676" stroke-width="1.51"/><path d="M323,-233L152,-224L207,-45Z" fill="#767474" stroke="#767474" stroke-width="1.51"/><path d="M152,-224L26,-209L40,-63Z" fill="#393737" stroke="#393737" stroke-width="1.51"/><path d="M26,-209L-111,-137L40,-63Z" fill="#050000" stroke="#050000" stroke-width="1.51"/><path d="M521,-68L571,-146L461,-73Z" fill="#403e3e" stroke="#403e3e" stroke-width="1.51"/><path d="M677,178L672,16L507,45Z" fill="#3e3c3c" stroke="#3e3c3c" stroke-width="1.51"/><path d="M749,70L672,16L677,178Z" fill="#444242" stroke="#444242" stroke-width="1.51"/><path d="M607,-230L323,-233L401,-170Z" fill="#737171" stroke="#737171" stroke-width="1.51"/><path d="M401,-170L323,-233L322,-8Z" fill="#767575" stroke="#767575" stroke-width="1.51"/><path d="M-171,620L-26,806L-57,616Z" fill="#050000" stroke="#050000" stroke-width="1.51"/><path d="M-227,759L-26,806L-171,620Z" fill="#050000" stroke="#050000" stroke-width="1.51"/><path d="M278,764L430,815L460,637Z" fill="#757373" stroke="#757373" stroke-width="1.51"/><path d="M92,791L430,815L278,764Z" fill="#777676" stroke="#777676" stroke-width="1.51"/><path d="M-26,806L430,815L92,791Z" fill="#737171" stroke="#737171" stroke-width="1.51"/><path d="M704,-67L571,-146L521,-68Z" fill="#060201" stroke="#060201" stroke-width="1.51"/><path d="M572,623L655,655L635,522Z" fill="#050000" stroke="#050000" stroke-width="1.51"/><path d="M799,266L767,138L692,248Z" fill="#757373" stroke="#757373" stroke-width="1.51"/><path d="M581,829L655,655L572,623Z" fill="#050000" stroke="#050000" stroke-width="1.51"/><path d="M26,-209L-168,-136L-111,-137Z" fill="#050000" stroke="#050000" stroke-width="1.51"/><path d="M-111,-137L-168,-136L-156,-20Z" fill="#050000" stroke="#050000" stroke-width="1.51"/><path d="M-156,-20L-168,-136L-194,95Z" fill="#050000" stroke="#050000" stroke-width="1.51"/><path d="M692,248L767,138L677,178Z" fill="#747272" stroke="#747272" stroke-width="1.51"/><path d="M672,16L704,-67L521,-68Z" fill="#050000" stroke="#050000" stroke-width="1.51"/><path d="M799,266L622,430L801,467Z" fill="#757373" stroke="#757373" stroke-width="1.51"/><path d="M767,138L749,70L677,178Z" fill="#626060" stroke="#626060" stroke-width="1.51"/><path d="M751,540L622,430L635,522Z" fill="#4f4c4c" stroke="#4f4c4c" stroke-width="1.51"/><path d="M655,655L751,540L635,522Z" fill="#1b1919" stroke="#1b1919" stroke-width="1.51"/><path d="M749,70L704,-67L672,16Z" fill="#0c0707" stroke="#0c0707" stroke-width="1.51"/><path d="M751,540L801,467L622,430Z" fill="#5c5a5a" stroke="#5c5a5a" stroke-width="1.51"/><path d="M-222,584L-227,759L-171,620Z" fill="#050000" stroke="#050000" stroke-width="1.51"/><path d="M751,540L801,648L801,467Z" fill="#292626" stroke="#292626" stroke-width="1.51"/><path d="M655,655L801,648L751,540Z" fill="#050000" stroke="#050000" stroke-width="1.51"/><path d="M430,815L581,829L460,637Z" fill="#535151" stroke="#535151" stroke-width="1.51"/><path d="M-26,806L581,829L430,815Z" fill="#777676" stroke="#777676" stroke-width="1.51"/><path d="M704,-67L607,-230L571,-146Z" fill="#050000" stroke="#050000" stroke-width="1.51"/><path d="M571,-146L607,-230L401,-170Z" fill="#3a3737" stroke="#3a3737" stroke-width="1.51"/><path d="M581,829L686,765L655,655Z" fill="#050000" stroke="#050000" stroke-width="1.51"/><path d="M704,-67L830,-177L607,-230Z" fill="#050000" stroke="#050000" stroke-width="1.51"/><path d="M749,70L812,-34L704,-67Z" fill="#050000" stroke="#050000" stroke-width="1.51"/><path d="M767,138L812,-34L749,70Z" fill="#2f2d2d" stroke="#2f2d2d" stroke-width="1.51"/><path d="M799,266L812,-34L767,138Z" fill="#5e5c5c" stroke="#5e5c5c" stroke-width="1.51"/><path d="M830,-177L812,-34L799,266Z" fill="#161313" stroke="#161313" stroke-width="1.51"/><path d="M801,467L830,-177L799,266Z" fill="#747272" stroke="#747272" stroke-width="1.51"/><path d="M686,765L801,648L655,655Z" fill="#050000" stroke="#050000" stroke-width="1.51"/><path d="M686,765L775,827L801,648Z" fill="#050000" stroke="#050000" stroke-width="1.51"/><path d="M581,829L775,827L686,765Z" fill="#050000" stroke="#050000" stroke-width="1.51"/><path d="M812,-34L830,-177L704,-67Z" fill="#050000" stroke="#050000" stroke-width="1.51"/><path d="M801,648L830,-177L801,467Z" fill="#787676" stroke="#787676" stroke-width="1.51"/></svg>